<?xml version="1.0" encoding="utf-8"?>
<!-- Generator: Adobe Illustrator 28.0.0, SVG Export Plug-In . SVG Version: 6.00 Build 0)  -->
<svg version="1.1" id="Layer_1" xmlns="http://www.w3.org/2000/svg" xmlns:xlink="http://www.w3.org/1999/xlink" x="0px" y="0px"
	 viewBox="0 0 1000 158" style="enable-background:new 0 0 1000 158;" xml:space="preserve">
<style type="text/css">
	.st0{fill:#E31B23;}
</style>
<g>
	<g>
		<polygon class="st0" points="216.8,4.86 216.8,58.48 166.07,58.48 166.07,4.86 131.71,4.86 127.56,4.86 5,4.86 5,37.85 
			49.1,37.85 49.1,152.1 87.61,152.1 87.61,37.85 127.56,37.85 127.56,152.1 166.07,152.1 166.07,91.47 216.8,91.47 216.8,152.1 
			255.31,152.1 255.31,4.86 		"/>
		<path class="st0" d="M327.97,1.77c46.59,0,72.88,34.02,72.88,76.71c0,42.68-26.29,76.71-72.88,76.71
			c-46.58,0-72.88-34.03-72.88-76.71C255.09,35.79,281.39,1.77,327.97,1.77z M327.97,122.2c24.85,0,34.37-21.86,34.37-43.72
			c0-21.86-9.52-43.72-34.37-43.72c-24.85,0-34.37,21.86-34.37,43.72C293.6,100.33,303.13,122.2,327.97,122.2z"/>
		<path class="st0" d="M401.03,4.86h75.37c26.09,0,51.76,11.75,51.76,41.45c0,15.88-7.66,30.93-23.19,36.91v0.41
			c15.74,3.71,20.29,21.24,21.53,35.26c0.41,6.18,1.04,27.84,6.21,33.2h-38.1c-3.31-4.95-3.93-19.39-4.35-23.51
			c-1.04-14.85-3.52-30.11-21.53-30.11h-29.19v53.62h-38.51V4.86z M439.54,68.78h32.3c11.6,0,17.81-6.19,17.81-17.32
			c0-10.93-8.7-15.88-19.46-15.88h-30.64V68.78z"/>
	</g>
	<g>
		<g>
			<path class="st0" d="M929.61,10.33c26.46,0,53.11,12.8,53.3,42.69h-33.76c0.56-12.06-11.62-16.3-22.25-16.3
				c-7.45,0-16.85,2.94-16.85,11.66c0,10.21,19.19,12.07,38.57,17.45c19.2,5.38,38.57,14.29,38.57,38.23
				c0,33.59-28.7,44.36-57.96,44.36c-27.04,0-51.27-10.49-56.63-36.42c-3.53,25.32-25.18,32.47-51.24,32.47h-61.09h-2.83h-33.33
				l-8.2-22.58h-46.4l-8.39,22.41h-26.24h-9.35h-87.37V13.11h34.66v102.83h62.06l40.4-102.83h35.22l46.62,122.12l0.31-122.12h62.24
				c0.65-0.01,1.3-0.02,1.95-0.02c22.37,0,46.13,6.37,46.13,33.24c0,11.88-7.08,21.53-17.52,26.72
				c13.1,3.78,21.56,14.54,22.76,28.03h32.09c0.75,15.59,11.47,20.6,26.2,20.6c10.44,0,21.24-3.72,21.24-13.55
				c0-11.69-19.65-13.44-38.84-18.82c-19.01-5.38-38.31-14.4-38.31-38.72C875.37,21.65,904.64,10.33,929.61,10.33 M929.61,2.52
				c-22.79,0-50.45,10.01-57.07,29.3c-3.9-14.21-18.59-26.53-50.91-26.54c-0.69,0-1.39,0.01-2.08,0.02l-62.12,0h-7.79l-0.02,7.79
				l-0.2,80.05l-31.61-82.81l-1.92-5.03h-5.38h-35.22h-5.32l-1.95,4.96l-38.46,97.87h-48.92V13.11V5.3h-7.81h-34.66h-7.81v7.81
				v131.17v7.81h7.81h87.37h9.35h26.24h5.42l1.9-5.07l6.49-17.33h35.51l6.33,17.44l1.87,5.15h5.48h33.33h2.83h61.09
				c25.21,0,42.53-6.65,51.75-19.81c10.87,15.16,30.61,23.77,56.13,23.77c41.18,0,65.77-19.5,65.77-52.17
				c0-27.27-22-41.16-43.83-44.74h31.73h7.86l-0.05-6.35C990.5,18.12,959.87,2.52,929.61,2.52L929.61,2.52z M917.07,47.84
				c0.38-3.96,8.88-4.43,9.28-4.43c6.64,0,12.28,1.99,14.71,4.54c0.81,0.84,1.71,2.2,1.57,5.17l-0.09,3.84
				c-0.79-0.19-1.57-0.38-2.35-0.56C931.64,54.35,916.69,51.81,917.07,47.84z M863.37,71.8c1.88-1.93,6.1-5.59,6.69-7.61
				c4.09,15.3,22.91,26.15,37.24,30.71h-28.63C874.99,83.05,869.24,75.72,863.37,71.8L863.37,71.8z M929.78,115.15
				c-10.84,0-16.82-3.37-17.35-14.43l-0.14-4.39c3.09,0.78,7.53,1.41,10.53,2.05c8.8,2.21,21.94,4.85,21.94,10.23
				c0,4.54-8.84,6.54-13.48,6.54H929.78z"/>
		</g>
		<path class="st0" d="M788.67,83.67h34.26c9.28,0,18.08,4.6,18.08,18.67c0,13.8-10.46,18.41-18.08,18.41h-34.26V83.67L788.67,83.67
			z M795.24,90.57v23.86h25.72c5.72,0,13.58-2.96,13.58-11.84c0-9.05-6.6-12.02-13.58-12.02H795.24L795.24,90.57z"/>
		<path class="st0" d="M788.67,36.11h30.84c8.36,0,16.28,4,16.28,16.2c0,11.97-9.42,15.97-16.28,15.97h-30.84V36.11L788.67,36.11z
			 M795.42,43.17v18.57h21.53c4.79,0,11.36-2.31,11.36-9.22c0-7.05-5.53-9.35-11.36-9.35H795.42L795.42,43.17z"/>
		<path class="st0" d="M672.9,99.5l17.37-53.16h5.41l16.8,53.16H672.9L672.9,99.5z M682.23,92.41h20.43l-10.04-32.07l0,0
			L682.23,92.41L682.23,92.41z"/>
	</g>
</g>
</svg>
